<svg width="20" height="16" viewBox="0 0 20 16" fill="none" xmlns="http://www.w3.org/2000/svg">
<path fill-rule="evenodd" clip-rule="evenodd" d="M19.0833 3.24642V13.2331C19.0833 14.564 17.9975 15.6498 16.6666 15.6498H3.33329C2.00241 15.6498 0.916626 14.564 0.916626 13.2331V3.23313C0.916626 1.90225 2.00241 0.816467 3.33329 0.816467H16.6666C17.9916 0.816467 19.0737 1.89265 19.0832 3.21546C19.0835 3.22578 19.0835 3.23611 19.0833 3.24642ZM2.48419 2.8899C2.62133 2.55514 2.95189 2.31647 3.33329 2.31647H16.6666C17.0481 2.31647 17.3786 2.55517 17.5158 2.88997L10 8.15099L2.48419 2.8899ZM2.41663 4.67359V13.2331C2.41663 13.7356 2.83084 14.1498 3.33329 14.1498H16.6666C17.1691 14.1498 17.5833 13.7356 17.5833 13.2331V4.67368L10.4301 9.6809C10.1719 9.86167 9.82817 9.86167 9.56993 9.6809L2.41663 4.67359Z" fill="#1E93FF"/>
</svg>
