<svg width="16" height="18" viewBox="0 0 16 18" fill="none" xmlns="http://www.w3.org/2000/svg">
<path fill-rule="evenodd" clip-rule="evenodd" d="M1.77929 12.1791C2.54507 11.4134 3.58368 10.9832 4.66665 10.9832H11.3333C12.4163 10.9832 13.4549 11.4134 14.2207 12.1791C14.9864 12.9449 15.4166 13.9835 15.4166 15.0665V16.7332C15.4166 17.1474 15.0809 17.4832 14.6666 17.4832C14.2524 17.4832 13.9166 17.1474 13.9166 16.7332V15.0665C13.9166 14.3813 13.6445 13.7243 13.16 13.2398C12.6755 12.7553 12.0185 12.4832 11.3333 12.4832H4.66665C3.9815 12.4832 3.32442 12.7553 2.83995 13.2398C2.35548 13.7243 2.08331 14.3813 2.08331 15.0665V16.7332C2.08331 17.1474 1.74753 17.4832 1.33331 17.4832C0.919099 17.4832 0.583313 17.1474 0.583313 16.7332V15.0665C0.583313 13.9835 1.01352 12.9449 1.77929 12.1791Z" fill="#B030FF"/>
<path fill-rule="evenodd" clip-rule="evenodd" d="M8 2.48315C6.57326 2.48315 5.41666 3.63975 5.41666 5.06649C5.41666 6.49322 6.57326 7.64982 8 7.64982C9.42673 7.64982 10.5833 6.49322 10.5833 5.06649C10.5833 3.63975 9.42673 2.48315 8 2.48315ZM3.91666 5.06649C3.91666 2.81133 5.74483 0.983154 8 0.983154C10.2552 0.983154 12.0833 2.81133 12.0833 5.06649C12.0833 7.32165 10.2552 9.14982 8 9.14982C5.74483 9.14982 3.91666 7.32165 3.91666 5.06649Z" fill="#B030FF"/>
</svg>
